<svg xmlns="http://www.w3.org/2000/svg" xmlns:xlink="http://www.w3.org/1999/xlink" width="2048" zoomAndPan="magnify" viewBox="0 0 1536 1535.999932" height="2048" preserveAspectRatio="xMidYMid meet" version="1.2"><defs><clipPath id="5ee4f76891"><path d="M 423 484 L 941 484 L 941 983 L 423 983 Z M 423 484 "/></clipPath><clipPath id="9d041c25d9"><path d="M 608.054688 423.046875 L 940.34375 545.929688 L 756.023438 1044.367188 L 423.730469 921.484375 Z M 608.054688 423.046875 "/></clipPath><clipPath id="883706b6c7"><path d="M 774.199219 484.488281 L 940.34375 545.929688 L 589.875 982.925781 L 423.730469 921.484375 Z M 774.199219 484.488281 "/></clipPath><clipPath id="72ca62222b"><path d="M 653 646 L 986 646 L 986 973 L 653 973 Z M 653 646 "/></clipPath><clipPath id="20598b28c3"><path d="M 768.351562 608.183594 L 985.601562 684.90625 L 870.515625 1010.78125 L 653.265625 934.058594 Z M 768.351562 608.183594 "/></clipPath><clipPath id="b29515b5fb"><path d="M 876.976562 646.546875 L 985.601562 684.90625 L 761.890625 972.421875 L 653.265625 934.058594 Z M 876.976562 646.546875 "/></clipPath><clipPath id="3552d73661"><path d="M 819 742 L 1032 742 L 1032 952 L 819 952 Z M 819 742 "/></clipPath><clipPath id="3bb0e2ceaa"><path d="M 892.058594 718.035156 L 1031.867188 766.449219 L 959.246094 976.164062 L 819.433594 927.75 Z M 892.058594 718.035156 "/></clipPath><clipPath id="427511ca11"><path d="M 961.964844 742.242188 L 1031.867188 766.449219 L 889.339844 951.957031 L 819.433594 927.75 Z M 961.964844 742.242188 "/></clipPath></defs><g id="0a3fded6a8"><g clip-rule="nonzero" clip-path="url(#5ee4f76891)"><g clip-rule="nonzero" clip-path="url(#9d041c25d9)"><g clip-rule="nonzero" clip-path="url(#883706b6c7)"><path style=" stroke:none;fill-rule:nonzero;fill:#004aad;fill-opacity:1;" d="M 608.054688 423.046875 L 940.34375 545.929688 L 756.023438 1044.367188 L 423.730469 921.484375 Z M 608.054688 423.046875 "/></g></g></g><g clip-rule="nonzero" clip-path="url(#72ca62222b)"><g clip-rule="nonzero" clip-path="url(#20598b28c3)"><g clip-rule="nonzero" clip-path="url(#b29515b5fb)"><path style=" stroke:none;fill-rule:nonzero;fill:#004aad;fill-opacity:1;" d="M 768.351562 608.183594 L 985.601562 684.90625 L 870.515625 1010.78125 L 653.265625 934.058594 Z M 768.351562 608.183594 "/></g></g></g><g clip-rule="nonzero" clip-path="url(#3552d73661)"><g clip-rule="nonzero" clip-path="url(#3bb0e2ceaa)"><g clip-rule="nonzero" clip-path="url(#427511ca11)"><path style=" stroke:none;fill-rule:nonzero;fill:#004aad;fill-opacity:1;" d="M 892.058594 718.035156 L 1031.867188 766.449219 L 959.246094 976.164062 L 819.433594 927.75 Z M 892.058594 718.035156 "/></g></g></g></g></svg>