<svg xmlns="http://www.w3.org/2000/svg" xmlns:xlink="http://www.w3.org/1999/xlink" width="40" zoomAndPan="magnify" viewBox="0 0 30 30.000001" height="40" preserveAspectRatio="xMidYMid meet" version="1.2"><defs><clipPath id="4ea5102064"><path d="M 5.964844 5.480469 L 24.109375 5.480469 L 24.109375 23.625 L 5.964844 23.625 Z M 5.964844 5.480469 "/></clipPath></defs><g id="44e39e2d5d"><g clip-rule="nonzero" clip-path="url(#4ea5102064)"><path style=" stroke:none;fill-rule:nonzero;fill:#ffffff;fill-opacity:1;" d="M 14.996094 5.480469 C 10.007812 5.480469 5.964844 9.523438 5.964844 14.511719 C 5.964844 19.5 10.007812 23.546875 14.996094 23.546875 C 19.984375 23.546875 24.03125 19.5 24.03125 14.511719 C 24.03125 9.523438 19.984375 5.480469 14.996094 5.480469 Z M 14.996094 22.863281 C 10.386719 22.863281 6.648438 19.125 6.648438 14.511719 C 6.648438 9.902344 10.386719 6.164062 14.996094 6.164062 C 19.609375 6.164062 23.34375 9.902344 23.34375 14.511719 C 23.34375 19.125 19.609375 22.863281 14.996094 22.863281 Z M 14.996094 22.863281 "/></g><path style=" stroke:none;fill-rule:nonzero;fill:#ffffff;fill-opacity:1;" d="M 13.9375 18.941406 C 13.710938 18.960938 13.527344 18.988281 13.347656 18.996094 C 12.316406 19.042969 11.554688 18.636719 11.089844 17.691406 C 10.945312 17.390625 10.753906 17.105469 10.558594 16.832031 C 10.441406 16.667969 10.273438 16.535156 10.121094 16.398438 L 10.121094 16.394531 C 10.027344 16.3125 10.066406 16.15625 10.191406 16.136719 C 10.335938 16.113281 10.472656 16.140625 10.605469 16.171875 C 11.019531 16.277344 11.285156 16.570312 11.496094 16.921875 C 11.976562 17.71875 12.800781 18.050781 13.695312 17.8125 C 13.847656 17.773438 13.914062 17.707031 13.945312 17.542969 C 13.984375 17.347656 14.035156 17.160156 14.09375 16.964844 C 14.128906 16.84375 14.113281 16.730469 14.050781 16.621094 C 13.988281 16.515625 13.894531 16.445312 13.773438 16.417969 L 13.769531 16.414062 C 12.84375 16.195312 12.042969 15.78125 11.527344 14.933594 C 11.25 14.484375 11.113281 13.984375 11.121094 13.464844 C 11.128906 12.875 11.179688 12.285156 11.25 11.699219 C 11.296875 11.285156 11.488281 10.921875 11.785156 10.625 C 11.886719 10.519531 11.898438 10.433594 11.847656 10.300781 C 11.644531 9.753906 11.679688 9.203125 11.859375 8.652344 C 11.910156 8.5 11.984375 8.476562 12.132812 8.523438 C 12.589844 8.667969 12.933594 8.964844 13.234375 9.324219 L 13.238281 9.328125 C 13.40625 9.53125 13.621094 9.59375 13.875 9.511719 C 14.824219 9.199219 16.269531 9.195312 17.167969 9.503906 C 17.425781 9.589844 17.636719 9.53125 17.8125 9.324219 L 17.8125 9.320312 C 18.117188 8.960938 18.460938 8.667969 18.917969 8.519531 C 19.070312 8.472656 19.136719 8.507812 19.1875 8.660156 C 19.363281 9.207031 19.394531 9.753906 19.203125 10.308594 C 19.175781 10.386719 19.175781 10.523438 19.222656 10.570312 C 19.636719 10.988281 19.816406 11.507812 19.859375 12.066406 C 19.90625 12.609375 19.953125 13.160156 19.902344 13.699219 C 19.773438 15.097656 18.921875 15.914062 17.625 16.320312 C 17.515625 16.351562 17.402344 16.382812 17.289062 16.410156 C 17.164062 16.441406 17.066406 16.511719 17.003906 16.625 C 16.941406 16.738281 16.933594 16.859375 16.976562 16.980469 C 17.152344 17.492188 17.125 18.035156 17.121094 18.578125 C 17.121094 18.703125 17.121094 18.828125 17.121094 18.953125 C 17.121094 19.160156 17.078125 19.363281 17 19.554688 C 16.917969 19.746094 16.804688 19.917969 16.660156 20.0625 C 16.511719 20.210938 16.339844 20.324219 16.148438 20.40625 C 15.957031 20.484375 15.753906 20.523438 15.546875 20.523438 L 15.511719 20.523438 C 15.300781 20.523438 15.101562 20.484375 14.910156 20.40625 C 14.714844 20.324219 14.546875 20.210938 14.398438 20.0625 C 14.25 19.914062 14.136719 19.746094 14.054688 19.550781 C 13.976562 19.359375 13.9375 19.160156 13.9375 18.949219 Z M 13.9375 18.941406 "/></g></svg>